<svg width="25" height="24" viewBox="0 0 25 24" fill="none" xmlns="http://www.w3.org/2000/svg">
<path d="M17.5 21C18.6046 21 19.5 20.1046 19.5 19C19.5 17.8954 18.6046 17 17.5 17C16.3954 17 15.5 17.8954 15.5 19C15.5 20.1046 16.3954 21 17.5 21Z" stroke="#292522" stroke-width="2" stroke-linecap="round" stroke-linejoin="round"/>
<path d="M8.5 21C9.60457 21 10.5 20.1046 10.5 19C10.5 17.8954 9.60457 17 8.5 17C7.39543 17 6.5 17.8954 6.5 19C6.5 20.1046 7.39543 21 8.5 21Z" stroke="#292522" stroke-width="2" stroke-linecap="round" stroke-linejoin="round"/>
<path d="M3.5 3H4.69158C5.16312 3 5.57059 3.3294 5.66939 3.79047L8.33061 16.2095C8.42941 16.6706 8.83688 17 9.30842 17H17.5" stroke="#292522" stroke-width="2" stroke-linecap="round" stroke-linejoin="round"/>
<path d="M6.5 6H20.1708C20.8362 6 21.316 6.63779 21.1316 7.27716L19.4008 13.2772C19.2773 13.7052 18.8855 14 18.44 14H8.23077" stroke="#292522" stroke-width="2" stroke-linecap="round" stroke-linejoin="round"/>
</svg>
