<svg width="24" height="24" viewBox="0 0 24 24" fill="none" xmlns="http://www.w3.org/2000/svg">
<path d="M17 21C18.1046 21 19 20.1046 19 19C19 17.8954 18.1046 17 17 17C15.8954 17 15 17.8954 15 19C15 20.1046 15.8954 21 17 21Z" stroke="white" stroke-width="2" stroke-linecap="round" stroke-linejoin="round"/>
<path d="M8 21C9.10457 21 10 20.1046 10 19C10 17.8954 9.10457 17 8 17C6.89543 17 6 17.8954 6 19C6 20.1046 6.89543 21 8 21Z" stroke="white" stroke-width="2" stroke-linecap="round" stroke-linejoin="round"/>
<path d="M3 3H4.19158C4.66312 3 5.07059 3.3294 5.16939 3.79047L7.83061 16.2095C7.92941 16.6706 8.33688 17 8.80842 17H17" stroke="white" stroke-width="2" stroke-linecap="round" stroke-linejoin="round"/>
<path d="M6 6H19.6708C20.3362 6 20.816 6.63779 20.6316 7.27716L18.9008 13.2772C18.7773 13.7052 18.3855 14 17.94 14H7.73077" stroke="white" stroke-width="2" stroke-linecap="round" stroke-linejoin="round"/>
</svg>
