<svg width="850" height="106" viewBox="0 0 850 106" fill="none" xmlns="http://www.w3.org/2000/svg">
<path d="M0 76.7294L61.89 99.4994V84.3694L15.03 68.3494V65.9994L61.89 49.9894V34.8594L0 57.6294V76.7294Z" fill="white"/>
<path d="M788.11 34.8594V49.9894L835.12 65.9994V68.3494L788.11 84.3694V99.4994L850 76.7294V57.6294L788.11 34.8594Z" fill="white"/>
<path d="M144.65 67.8425C144.65 75.6825 142.51 81.7025 138.24 85.9125C133.97 90.1225 128.54 92.2325 121.96 92.2325C115.38 92.2325 110.1 90.1325 105.83 85.9125C101.56 81.7025 99.42 75.6825 99.42 67.8425V66.5225C99.42 58.7825 101.56 52.8125 105.83 48.6025C110.1 44.3925 115.48 42.2825 121.96 42.2825C128.44 42.2825 134.09 44.3925 138.32 48.6025C142.54 52.8125 144.66 58.7925 144.66 66.5225V67.8425H144.65ZM144.5 40.8125H142.14C141.06 38.8525 139.49 36.9725 137.42 35.1525C135.36 33.3425 132.73 31.8525 129.54 30.6725C126.35 29.4925 122.39 28.9125 117.68 28.9125C111.59 28.9125 105.99 30.3825 100.88 33.3225C95.77 36.2625 91.6899 40.5225 88.6499 46.1025C85.5999 51.6825 84.08 58.3425 84.08 66.0825V68.2825C84.08 76.1225 85.63 82.8025 88.72 88.3325C91.81 93.8625 95.91 98.1025 101.02 101.042C106.13 103.982 111.68 105.453 117.67 105.453C124.74 105.453 130.17 104.183 133.95 101.633C137.73 99.0825 140.56 96.2525 142.42 93.1125H144.78V103.393H159.66V0.5625H144.48V40.8125H144.5Z" fill="white"/>
<path d="M230.85 73.4201C230.85 79.4901 228.98 84.2701 225.25 87.7401C221.52 91.2201 216.61 92.9502 210.52 92.9502C206.1 92.9502 202.61 91.9702 200.06 90.0102C197.5 88.0502 196.23 85.4102 196.23 82.0802C196.23 78.7502 197.46 76.2302 199.91 74.5102C202.36 72.8002 205.61 71.9402 209.63 71.9402H230.85V73.4101V73.4201ZM245.73 86.3501V56.5302C245.73 47.7102 243.03 40.9101 237.63 36.1101C232.23 31.3101 224.81 28.9102 215.38 28.9102C209.29 28.9102 204.08 29.8902 199.76 31.8502C195.44 33.8102 191.97 36.3802 189.37 39.5602C186.77 42.7402 184.88 46.2901 183.7 50.2101L197.85 54.7602C198.73 50.8402 200.55 47.6601 203.3 45.2101C206.05 42.7601 210.03 41.5402 215.24 41.5402C220.45 41.5402 224.47 42.8101 227.03 45.3601C229.58 47.9101 230.86 51.2902 230.86 55.5002V60.2002H208.76C203.46 60.2002 198.72 61.0302 194.54 62.7002C190.36 64.3702 187.07 66.8401 184.67 70.1201C182.26 73.4001 181.06 77.5402 181.06 82.5302C181.06 87.5202 182.26 91.5902 184.67 95.0202C187.08 98.4502 190.32 101.04 194.4 102.81C198.47 104.57 203.12 105.45 208.32 105.45C213.52 105.45 217.36 104.74 220.4 103.32C223.44 101.9 225.75 100.21 227.33 98.2502C228.9 96.2902 230.08 94.5801 230.87 93.1101H233.08V93.5501C233.08 96.5901 234.16 98.9902 236.32 100.75C238.48 102.51 241.28 103.39 244.72 103.39H256.07V90.7602H249.88C247.13 90.7602 245.75 89.2901 245.75 86.3501" fill="white"/>
<path d="M297.45 7.01953H282.27V30.9695H262.23V43.7495H282.27V88.8495C282.27 93.2595 283.57 96.7795 286.18 99.4295C288.78 102.07 292.29 103.4 296.72 103.4H316.76V90.6195H301.58C298.83 90.6195 297.45 89.1496 297.45 86.2096V43.7495H319.11V30.9695H297.45V7.01953Z" fill="white"/>
<path d="M385.56 73.4201C385.56 79.4901 383.69 84.2701 379.96 87.7401C376.23 91.2201 371.32 92.9502 365.23 92.9502C360.81 92.9502 357.32 91.9702 354.77 90.0102C352.21 88.0502 350.94 85.4102 350.94 82.0802C350.94 78.7502 352.17 76.2302 354.62 74.5102C357.07 72.8002 360.32 71.9402 364.34 71.9402H385.56V73.4101V73.4201ZM400.44 86.3501V56.5302C400.44 47.7102 397.74 40.9101 392.34 36.1101C386.94 31.3101 379.52 28.9102 370.09 28.9102C364 28.9102 358.79 29.8902 354.47 31.8502C350.15 33.8102 346.68 36.3802 344.08 39.5602C341.48 42.7402 339.59 46.2901 338.41 50.2101L352.56 54.7602C353.44 50.8402 355.26 47.6601 358.01 45.2101C360.76 42.7601 364.74 41.5402 369.95 41.5402C375.16 41.5402 379.18 42.8101 381.74 45.3601C384.29 47.9101 385.57 51.2902 385.57 55.5002V60.2002H363.47C358.17 60.2002 353.43 61.0302 349.25 62.7002C345.07 64.3702 341.78 66.8401 339.38 70.1201C336.97 73.4001 335.77 77.5402 335.77 82.5302C335.77 87.5202 336.97 91.5902 339.38 95.0202C341.79 98.4502 345.03 101.04 349.11 102.81C353.18 104.57 357.83 105.45 363.03 105.45C368.23 105.45 372.07 104.74 375.11 103.32C378.15 101.9 380.46 100.21 382.04 98.2502C383.61 96.2902 384.79 94.5801 385.58 93.1101H387.79V93.5501C387.79 96.5901 388.87 98.9902 391.03 100.75C393.19 102.51 395.99 103.39 399.43 103.39H410.78V90.7602H404.59C401.84 90.7602 400.46 89.2901 400.46 86.3501" fill="white"/>
<path d="M476.04 87.0124C472.7 90.2924 467.84 91.9323 461.45 91.9323C457.23 91.9323 453.42 91.0024 450.03 89.1424C446.64 87.2824 443.96 84.5423 442 80.9123C440.03 77.2923 439.05 72.9324 439.05 67.8424V66.5224C439.05 61.4324 440.03 57.0923 442 53.5223C443.96 49.9523 446.64 47.2024 450.03 45.2924C453.42 43.3824 457.22 42.4224 461.45 42.4224C465.68 42.4224 469.36 43.2023 472.21 44.7723C475.06 46.3423 477.27 48.4423 478.84 51.0923C480.41 53.7323 481.44 56.6723 481.93 59.9023L496.67 56.8224C495.79 51.7324 493.84 47.0823 490.85 42.8623C487.85 38.6523 483.9 35.2724 478.99 32.7224C474.08 30.1724 468.13 28.9023 461.16 28.9023C454.19 28.9023 447.87 30.4024 442.23 33.3824C436.58 36.3724 432.11 40.6324 428.82 46.1624C425.53 51.6924 423.88 58.3824 423.88 66.2124V68.1223C423.88 75.9623 425.52 82.6623 428.82 88.2523C432.11 93.8323 436.58 98.0924 442.23 101.032C447.88 103.972 454.19 105.442 461.16 105.442C468.13 105.442 474.08 104.192 478.99 101.692C483.9 99.1924 487.85 95.8424 490.85 91.6324C493.84 87.4224 495.93 82.8224 497.11 77.8224L482.38 74.4424C481.5 79.5324 479.38 83.7223 476.04 87.0023" fill="white"/>
<path d="M541.24 32.8018C538.64 34.2218 536.75 36.4519 535.57 39.4819H533.21V30.9619H518.33V103.382H533.51V60.7819C533.51 55.2019 535.08 51.0619 538.22 48.3719C541.36 45.6819 545.39 44.3318 550.3 44.3318H559.58V30.6719H550.89C547.06 30.6719 543.84 31.3818 541.24 32.8018Z" fill="white"/>
<path d="M622.06 73.4201C622.06 79.4901 620.19 84.2701 616.46 87.7401C612.73 91.2201 607.82 92.9502 601.73 92.9502C597.31 92.9502 593.82 91.9702 591.27 90.0102C588.71 88.0502 587.44 85.4102 587.44 82.0802C587.44 78.7502 588.67 76.2302 591.12 74.5102C593.57 72.8002 596.82 71.9402 600.84 71.9402H622.06V73.4101V73.4201ZM636.94 86.3501V56.5302C636.94 47.7102 634.24 40.9101 628.84 36.1101C623.44 31.3101 616.02 28.9102 606.59 28.9102C600.5 28.9102 595.29 29.8902 590.97 31.8502C586.65 33.8102 583.18 36.3802 580.58 39.5602C577.98 42.7402 576.09 46.2901 574.91 50.2101L589.06 54.7602C589.94 50.8402 591.76 47.6601 594.51 45.2101C597.26 42.7601 601.24 41.5402 606.45 41.5402C611.66 41.5402 615.68 42.8101 618.24 45.3601C620.79 47.9101 622.07 51.2902 622.07 55.5002V60.2002H599.97C594.67 60.2002 589.93 61.0302 585.75 62.7002C581.57 64.3702 578.28 66.8401 575.88 70.1201C573.47 73.4001 572.27 77.5402 572.27 82.5302C572.27 87.5202 573.47 91.5902 575.88 95.0202C578.29 98.4502 581.53 101.04 585.6 102.81C589.68 104.57 594.32 105.45 599.52 105.45C604.72 105.45 608.56 104.74 611.6 103.32C614.64 101.9 616.95 100.21 618.53 98.2502C620.1 96.2902 621.28 94.5801 622.07 93.1101H624.28V93.5501C624.28 96.5901 625.36 98.9902 627.52 100.75C629.68 102.51 632.48 103.39 635.92 103.39H647.27V90.7602H641.08C638.33 90.7602 636.95 89.2901 636.95 86.3501" fill="white"/>
<path d="M740.38 15.1008C740.38 11.9608 739.7 9.27078 738.35 7.02078C737.82 6.11078 737.17 5.28078 736.4 4.52078C733.74 1.87078 730.21 0.550781 725.79 0.550781H688.37C683.95 0.550781 680.41 1.8708 677.76 4.5108C675.11 7.1508 673.78 10.6808 673.78 15.0908V30.9608H653.45V43.7408H673.78V103.381H688.96V43.7408H709.88V30.9608H688.96V17.7408C688.96 14.8008 690.38 13.3308 693.23 13.3308H720.93C723.78 13.3308 725.21 14.8008 725.21 17.7308V88.8308C725.21 93.2408 726.51 96.7608 729.11 99.4108C731.71 102.051 735.22 103.381 739.65 103.381H759.69V90.5908H744.52C741.76 90.5908 740.4 89.1308 740.4 86.1908V43.7308H760.73V30.9508H740.4V15.0808L740.38 15.1008Z" fill="white"/>
</svg>
