<svg width="850" height="142" viewBox="0 0 850 142" fill="none" xmlns="http://www.w3.org/2000/svg">
<path d="M322.18 115.09H301.3V18.8698H260V115.09H240.64V0.589844H383.08V115.09H362.71V18.8698H322.17V115.09H322.18Z" fill="white"/>
<path d="M418.57 68.3799V96.8098H480.54V115.09H398.19V0.589844H480.03V68.3799H418.57ZM418.57 49.5898H461.44V18.8698H418.57V49.5898Z" fill="white"/>
<path d="M557.67 115.09V18.8698H515.05V115.09H495.69V0.589844H578.04V115.09H557.67Z" fill="white"/>
<path d="M668.8 115.09H620.32V18.8698H591.18V0.589844H668.8V18.8698H639.68V96.8098H668.8V115.09Z" fill="white"/>
<path d="M683.14 115.09V0.589844H765.49V115.09H683.14ZM746.39 18.8698H703.52V96.8098H746.39V18.8698Z" fill="white"/>
<path d="M830.65 18.8698H801.02V115.09H780.65V0.589844H850.01V39.7998H830.66V18.8598L830.65 18.8698Z" fill="white"/>
<path d="M104.34 39.2498V37.3998H93.83C103.35 20.7498 111.02 10.0898 116.84 5.39984C122.68 0.689841 126.49 1.10984 128.44 3.17984C133.98 9.08984 122.22 9.60986 122.22 15.1999C122.22 22.5399 131.42 22.1898 134.76 15.4398C136.35 12.2198 136.17 8.29984 134.18 5.30984C132.62 2.94985 129.69 0.589844 124.26 0.589844C111.24 0.589844 97.72 12.9998 81.59 37.3998H68.88V39.2498H80.3C66.64 60.4098 39.62 113 23.77 130.36C13.57 141.53 3.42002 141.67 0.850021 137.41L0.0200195 140.72C4.44002 141.6 21.63 146.67 50.76 107.8C58.55 97.4098 92.54 39.2599 92.54 39.2599H104.35L104.34 39.2498Z" fill="white"/>
<path d="M190.19 56.2583C194.27 53.6683 200.27 50.2183 208.19 45.8983C218.7 39.9783 223.96 35.4783 223.96 32.3983C223.96 29.3183 217.8 28.6683 208.56 32.4883C201.11 35.5683 191.75 42.3783 187.97 54.7783C183.27 57.7383 178.36 60.4883 171.68 65.5483L182.22 48.4983C186.01 42.1983 186.92 37.3483 183.52 34.7183C182.09 33.6183 177.93 31.5583 169.79 35.4583C166.57 36.9983 163.48 39.3183 160.51 42.3983L161.37 42.8283C176.39 30.1883 173.94 41.0483 166.63 52.0183L158.87 64.3183C154.41 70.3783 132.75 97.6983 113.89 97.6983C104 97.6983 89.84 92.3583 101.46 68.6583C101.46 68.6583 144.15 67.5583 151.97 48.4383C153.82 43.8983 152.29 38.5283 148.07 36.0283C145.45 34.4783 141.47 33.3283 135.41 33.3283C112.93 33.3283 98.44 47.8983 91.9 58.7583C69.25 96.4083 110.79 116.558 146.54 83.8483L136.99 98.9883H158.14V98.6183C154.31 98.2183 154.12 94.3283 156.43 90.2983L167.75 71.9883C172.4 67.6383 187.42 57.9283 187.42 57.9283C187.42 57.9283 185.72 72.3583 204.67 72.3583C208.44 72.3583 218.25 71.1083 223.69 64.4183H220.96C212.29 73.4183 186.34 71.5783 190.2 56.2683L190.19 56.2583ZM118.89 44.8783C143.55 21.3983 161.88 43.7883 124.27 62.1683C114.66 66.8683 102.42 66.5383 102.42 66.5383C106.62 58.3983 111.96 51.4683 118.89 44.8783Z" fill="white"/>
</svg>
