<svg width="850" height="458" viewBox="0 0 850 458" fill="none" xmlns="http://www.w3.org/2000/svg">
<path d="M849.42 219.409H771.69V242.309H822.14C820.3 252.229 815.4 260.289 807.42 266.479C799.44 272.679 790.02 275.769 779.16 275.769C766.6 275.769 755.9 271.369 747.06 262.559C738.23 253.749 733.81 242.559 733.81 228.999C733.81 215.439 738.23 204.239 747.06 195.439C755.89 186.629 766.59 182.229 779.16 182.229C787.93 182.229 795.9 184.479 803.1 188.979C810.3 193.479 815.8 199.709 819.59 207.669L842.36 195.929C836.6 183.789 828.07 174.239 816.74 167.269C805.42 160.289 792.89 156.789 779.15 156.789C769.45 156.789 760.3 158.589 751.66 162.179C743.03 165.759 735.5 170.689 729.09 176.959C722.68 183.219 717.61 190.889 713.88 199.949C710.15 209.019 708.29 218.709 708.29 229.009C708.29 239.309 710.15 249.009 713.88 258.069C717.61 267.139 722.69 274.799 729.09 281.059C735.51 287.319 743.03 292.249 751.66 295.839C760.3 299.429 769.45 301.229 779.15 301.229C792.1 301.229 803.98 298.259 814.78 292.329C825.57 286.389 834.14 278.109 840.49 267.469C846.84 256.839 850.01 244.929 850.01 231.759C850.01 226.269 849.81 222.159 849.43 219.419M663.92 257.389L603.65 160.709H574.21V297.699H599.73V200.439L660 297.699H689.44V160.709H663.92V257.389ZM551.45 160.709H525.93V297.699H551.45V160.709ZM441.32 297.699H488.3V272.649H466.84V185.759H508.65V160.709H381.66L364.19 260.129L322.38 160.709H291.56L267.42 297.699H293.33L310.8 197.689L352.41 297.699H383.23L402.96 185.759H441.32V297.699ZM195.32 299.849C211.55 299.849 225.16 294.459 236.16 283.699C247.15 272.939 252.64 259.329 252.64 242.899V160.699H227.13V240.939C227.13 251.379 224.15 259.569 218.19 265.509C212.24 271.449 204.61 274.409 195.32 274.409C186.03 274.409 178.41 271.449 172.46 265.509C166.5 259.569 163.53 251.379 163.53 240.939V160.699H138.01V242.899C138.01 259.329 143.51 272.939 154.49 283.699C165.49 294.459 179.09 299.849 195.32 299.849ZM89.71 216.479H25.52V160.699H0V297.689H25.52V241.519H89.71V297.689H115.24V160.699H89.71V216.479ZM541.86 74.5992H573.85C581.17 74.5992 587.33 72.3892 592.3 67.9592C597.27 63.5192 599.76 58.0392 599.76 51.5192C599.76 44.9992 597.3 39.7992 592.4 35.5692C587.49 31.3292 581.31 29.2092 573.85 29.2092H541.86V74.5992ZM541.86 141.139H516.34V4.15921H575.81C589.94 4.15921 601.72 8.65922 611.15 17.6692C620.57 26.6692 625.28 37.9592 625.28 51.5192C625.28 65.0792 620.27 76.3392 610.26 85.6692C600.26 94.9992 588.12 99.6592 573.85 99.6592H541.86V141.149V141.139ZM247.23 84.9692H311.42V141.139H336.94V4.15921H311.42V59.9392H247.23V4.15921H221.71V141.139H247.23V84.9692ZM380.9 77.3292C380.9 89.5992 384.83 99.6392 392.68 107.469C400.53 115.299 410.47 119.199 422.52 119.199C436.26 119.199 447.97 114.079 457.66 103.839C467.34 93.5892 472.18 81.3592 472.18 67.1392C472.18 55.0092 468.25 45.0592 460.4 37.2992C452.55 29.5292 442.61 25.6492 430.56 25.6492C416.82 25.6492 405.11 30.6692 395.42 40.7192C385.73 50.7692 380.9 62.9692 380.9 77.3192M374.52 125.659C361.76 113.009 355.38 97.1492 355.38 78.0992C355.38 64.0092 358.72 50.9992 365.39 39.0492C372.07 27.1192 381.22 17.6592 392.88 10.6692C404.53 3.68922 417.15 0.199219 430.76 0.199219C449.86 0.199219 465.83 6.4592 478.66 18.9892C491.47 31.5192 497.89 47.2992 497.89 66.3492C497.89 80.1792 494.52 93.1392 487.78 105.199C481.04 117.269 471.84 126.859 460.2 133.959C448.55 141.079 435.87 144.629 422.13 144.629C403.15 144.629 387.28 138.299 374.52 125.649M634 414.509C634 409.689 632.29 405.669 628.89 402.469C625.49 399.279 621.3 397.679 616.33 397.679H574.13V429.179H617.51C622.21 429.179 626.15 427.789 629.28 424.979C632.43 422.179 634 418.689 634 414.509ZM574.13 373.409H616.33C620.78 373.409 624.51 371.789 627.52 368.519C630.53 365.259 632.03 361.279 632.03 356.589C632.03 352.409 630.49 348.979 627.41 346.309C624.34 343.629 620.38 342.299 615.54 342.299H574.12V373.409H574.13ZM654.31 398.369C657.78 404.179 659.51 410.669 659.51 417.849C659.51 428.149 655.71 436.799 648.12 443.779C640.53 450.759 631.11 454.249 619.86 454.249H548.6V317.259H617.9C629.28 317.259 638.73 320.619 646.27 327.339C653.8 334.069 657.55 342.579 657.55 352.889C657.55 359.679 655.98 365.939 652.85 371.679C649.69 377.419 645.38 381.849 639.88 384.979C646.04 388.119 650.85 392.589 654.31 398.389M500.31 397.509C500.31 407.949 497.34 416.129 491.38 422.069C485.42 428.009 477.8 430.979 468.51 430.979C459.22 430.979 451.6 428.009 445.65 422.069C439.69 416.129 436.72 407.949 436.72 397.509V317.269H411.19V399.469C411.19 415.899 416.7 429.509 427.68 440.269C438.68 451.039 452.28 456.419 468.51 456.419C484.74 456.419 498.35 451.039 509.34 440.269C520.35 429.509 525.83 415.909 525.83 399.469V317.269H500.31V397.509ZM248.39 424.419C240.8 429.699 232.23 432.339 222.68 432.339C209.86 432.339 199.03 427.909 190.19 419.029C181.36 410.159 176.94 398.999 176.94 385.559C176.94 372.119 181.36 360.969 190.19 352.099C199.02 343.229 209.86 338.789 222.68 338.789C231.96 338.789 240.35 341.269 247.81 346.219C255.27 351.189 260.89 358.039 264.69 366.779L290.22 357.569C284.06 343.869 274.96 333.079 262.92 325.189C250.88 317.299 237.53 313.349 222.89 313.349C209.67 313.349 197.59 316.479 186.66 322.739C175.74 328.999 167.14 337.649 160.85 348.669C154.57 359.699 151.42 371.999 151.42 385.559C151.42 399.119 154.57 411.429 160.85 422.449C167.13 433.479 175.74 442.119 186.66 448.379C197.59 454.639 209.66 457.779 222.89 457.779C237.93 457.779 251.57 453.629 263.81 445.349C276.04 437.069 285.17 425.819 291.19 411.599L265.47 402.589C261.67 411.859 255.99 419.129 248.39 424.419ZM330.57 429.409H401.63L397.12 454.259H300.35L324.88 317.269H350.59L330.57 429.409Z" fill="white"/>
</svg>
