<svg width="40" height="40" viewBox="0 0 40 40" fill="none" xmlns="http://www.w3.org/2000/svg">
<path d="M27.75 5H13.25C9.24594 5 6 8.24594 6 12.25V26.75C6 30.7541 9.24594 34 13.25 34H27.75C31.7541 34 35 30.7541 35 26.75V12.25C35 8.24594 31.7541 5 27.75 5Z" stroke="white" stroke-width="2" stroke-linecap="round" stroke-linejoin="round"/>
<path d="M25.6666 19.1089C25.8414 20.2879 25.64 21.492 25.0911 22.55C24.5421 23.608 23.6735 24.4659 22.6089 25.0018C21.5442 25.5376 20.3377 25.7242 19.1609 25.5348C17.9842 25.3454 16.8971 24.7899 16.0543 23.947C15.2115 23.1042 14.6559 22.0171 14.4665 20.8404C14.2771 19.6636 14.4637 18.4571 14.9995 17.3924C15.5354 16.3278 16.3933 15.4592 17.4513 14.9102C18.5093 14.3613 19.7134 14.1599 20.8924 14.3347C22.0951 14.5131 23.2084 15.0735 24.0681 15.9332C24.9278 16.7929 25.4882 17.9063 25.6666 19.1089Z" stroke="white" stroke-width="2" stroke-linecap="round" stroke-linejoin="round"/>
<path d="M28.492 12.1044C28.5139 12.2518 28.4887 12.4023 28.4201 12.5346C28.3515 12.6668 28.2429 12.7741 28.1098 12.841C27.9767 12.908 27.8259 12.9313 27.6788 12.9077C27.5317 12.884 27.3958 12.8146 27.2905 12.7092C27.1851 12.6038 27.1157 12.468 27.092 12.3209C27.0683 12.1738 27.0917 12.023 27.1586 11.8899C27.2256 11.7568 27.3329 11.6482 27.4651 11.5796C27.5973 11.511 27.7479 11.4858 27.8952 11.5077C28.0456 11.53 28.1847 11.6 28.2922 11.7075C28.3997 11.8149 28.4697 11.9541 28.492 12.1044Z" stroke="white" stroke-width="2" stroke-linecap="round" stroke-linejoin="round"/>
</svg>
