<?xml version="1.0" encoding="UTF-8"?>
<svg id="_Слой_2" data-name="Слой 2" xmlns="http://www.w3.org/2000/svg" viewBox="0 0 55.42 42.74">
  <defs>
    <style>
      .cls-1 {
        fill: #245f49;
      }

      .cls-2 {
        fill: #fff;
      }
    </style>
  </defs>
  <g id="Layer_1" data-name="Layer 1">
    <g>
      <path class="cls-2" d="M14.24,0L0,12.35v30.39h41.26l14.15-12.27V0H14.24ZM48.48,16.95h-8.09v-7.32c0-2.23,1.81-4.04,4.04-4.04s4.04,1.81,4.04,4.04v7.32Z"/>
      <g>
        <polyline class="cls-1" points="13.76 27.54 15.38 27.54 16.61 24.8 17.02 23.66 17.1 23.66 17.03 24.23 17.03 27.54 18.17 27.54 18.17 22.89 16.5 22.89 15.16 25.94 14.85 26.75 14.77 26.75 14.86 25.96 14.86 22.89 13.72 22.89 13.72 27.54"/>
        <path class="cls-1" d="M24.18,26.27c0-.24-.05-.44-.16-.59-.11-.15-.28-.26-.52-.34-.24-.08-.57-.13-.99-.15v-.09c.4-.02.72-.07.94-.16.22-.08.38-.2.48-.35.1-.15.14-.34.14-.58,0-.31-.07-.54-.22-.7-.15-.16-.36-.27-.63-.34-.27-.06-.64-.09-1.08-.09h-2.11v4.66h2.21c.46,0,.83-.04,1.11-.12.28-.08.49-.21.63-.39.14-.18.2-.43.2-.76ZM21.21,23.64h.81c.19,0,.34.02.46.06.12.04.21.1.28.2.06.09.09.21.09.36,0,.21-.07.35-.2.44-.13.09-.35.13-.63.13h-.81v-1.19ZM22.89,26.43c-.06.09-.16.16-.3.2-.13.04-.31.06-.53.06h-.85v-1.23h.8c.33,0,.58.04.74.13.16.09.23.24.23.46,0,.15-.03.28-.09.37Z"/>
        <g>
          <polyline class="cls-1" points="37.12 27.54 38.74 27.54 39.97 24.8 40.38 23.66 40.46 23.66 40.39 24.23 40.39 27.54 41.53 27.54 41.53 22.89 39.86 22.89 38.52 25.94 38.21 26.75 38.13 26.75 38.22 25.96 38.22 22.89 37.07 22.89 37.08 27.54"/>
          <path class="cls-1" d="M39.3,22.3c.3,0,.54-.07.71-.22.17-.15.26-.37.26-.67l-.35-.05c0,.12-.06.21-.17.28-.11.07-.26.1-.45.1s-.32-.03-.44-.1c-.11-.07-.17-.16-.17-.28l-.36.05c.02.29.11.51.27.66.16.15.4.22.7.22Z"/>
        </g>
        <path class="cls-1" d="M9.68,30.73c1.08-.06.98,1.04,1.02,1.43l1.24-.12c-.03-.41-.12-.76-.27-1.04-.15-.28-.44-.49-.73-.64-.3-.15-.68-.22-1.15-.22-.5,0-1.01.09-1.33.26-.32.18-.6.44-.75.79-.15.35-.26.8-.26,1.34s.11.99.26,1.34c.15.35.43.62.75.79.32.17.83.26,1.33.26.47,0,.85-.07,1.15-.22.3-.15.58-.36.73-.64.15-.28.24-.63.27-1.04l-1.24-.12c-.04.39.05,1.49-1.02,1.43-.86-.05-.88-1.51-.88-1.8,0-.3.02-1.76.88-1.8Z"/>
        <path class="cls-1" d="M15.92,32.7c-.06-.05-.13-.09-.22-.12-.09-.02-.25-.05-.46-.08v-.08c.21-.03.36-.06.46-.09.09-.02.17-.06.23-.11.06-.05.13-.14.21-.26l1.19-1.76h-1.29l-1.29,1.92h-.32v-1.92h-1.21v4.66h1.21v-2.03h.32l1.37,2.03h1.34l-1.32-1.89c-.08-.13-.15-.22-.2-.27Z"/>
        <path class="cls-1" d="M19.15,30.21v2.37c0,.81-.13,1.29-.82,1.29v1.06c1.4,0,1.81-.95,1.81-2.17v-1.72h1.47l-.02,3.84h1.2v-4.66h-3.64Z"/>
        <path class="cls-1" d="M34.15,30.21h-3.58v2.05c0,.3-.01.56-.04.77-.02.21-.07.4-.15.58-.07.16-.17.31-.31.44h-.51l.03,1.6h.9v-.79h3.25v.79h.91l.03-1.6h-.54v-3.84ZM30.86,34.05c.07-.05.57-.28.57-1.28v-1.75h1.53v3.02h-2.1Z"/>
        <polygon class="cls-1" points="28.53 22.89 28.53 24.65 26.88 24.65 26.88 22.89 25.68 22.89 25.68 27.54 26.88 27.54 26.88 25.47 28.53 25.47 28.53 27.54 29.74 27.54 29.74 22.89 28.53 22.89"/>
        <path class="cls-1" d="M35.49,23.86c-.16-.36-.41-.63-.75-.81-.34-.17-.79-.26-1.33-.26s-.99.09-1.33.26c-.34.17-.59.45-.75.81-.16.36-.28.81-.28,1.36s.12,1,.28,1.36c.16.36.41.63.75.81.34.17.79.26,1.33.26s.99-.09,1.33-.26c.34-.17.59-.45.75-.81.16-.36.28-.81.28-1.36s-.12-1-.28-1.36ZM33.41,27.18c-.36,0-1.03-.12-1.03-1.97s.67-1.97,1.03-1.97,1.03.12,1.03,1.97-.67,1.97-1.03,1.97Z"/>
        <path class="cls-1" d="M27.37,34.87h1.24l-1.28-4.66h-2.03l-1.28,4.66h1.24l.27-1.04h1.58l.27,1.04ZM25.67,33.29l.62-2.4h.06l.62,2.4h-1.3Z"/>
        <polygon class="cls-1" points="7.74 22.89 7.74 27.54 8.99 27.54 8.99 23.71 10.64 23.71 10.64 27.54 11.9 27.54 11.9 22.89 7.74 22.89"/>
      </g>
    </g>
  </g>
</svg>