<?xml version="1.0" encoding="UTF-8"?>
<svg id="_Слой_2" data-name="Слой 2" xmlns="http://www.w3.org/2000/svg" viewBox="0 0 95.27 73.47">
  <defs>
    <style>
      .cls-1 {
        fill: #f04e23;
      }

      .cls-2 {
        fill: #fff;
      }
    </style>
  </defs>
  <g id="Layer_1" data-name="Layer 1">
    <g>
      <path class="cls-1" d="M24.48,0L0,21.22v52.25h70.93l24.33-21.09V0H24.48ZM83.34,29.13h-13.9v-12.58c0-3.84,3.11-6.95,6.95-6.95s6.95,3.11,6.95,6.95v12.58Z"/>
      <g>
        <polyline class="cls-2" points="22.29 49.38 25.07 49.38 27.18 44.66 27.89 42.7 28.03 42.7 27.91 43.69 27.91 49.38 29.87 49.38 29.87 41.37 27 41.37 24.7 46.63 24.16 48.01 24.02 48.01 24.17 46.65 24.17 41.37 22.21 41.37 22.22 49.38"/>
        <path class="cls-2" d="M40.21,47.2c0-.42-.09-.76-.27-1.02-.18-.26-.48-.45-.89-.59-.41-.13-.98-.22-1.71-.26v-.15c.69-.03,1.23-.12,1.62-.27.38-.14.66-.34.82-.6.16-.26.25-.59.25-1,0-.52-.13-.93-.38-1.21-.25-.28-.61-.47-1.09-.58-.47-.1-1.09-.16-1.86-.16h-3.63v8h3.81c.79,0,1.43-.07,1.91-.2.48-.14.84-.36,1.08-.67.23-.31.35-.75.35-1.31ZM35.09,42.67h1.38c.32,0,.59.03.8.1.21.07.37.18.48.34.11.16.16.37.16.62,0,.36-.12.61-.35.76-.23.15-.59.23-1.09.23h-1.38v-2.05ZM37.98,47.47c-.11.16-.28.28-.51.35-.23.07-.54.1-.91.1h-1.46v-2.11h1.37c.57,0,.99.08,1.26.23.27.15.4.41.4.79,0,.27-.05.48-.16.64Z"/>
        <g>
          <polyline class="cls-2" points="62.44 49.38 65.22 49.38 67.34 44.66 68.04 42.7 68.19 42.7 68.06 43.69 68.06 49.38 70.03 49.38 70.03 41.37 67.15 41.37 64.85 46.63 64.32 48.01 64.17 48.01 64.33 46.65 64.33 41.37 62.36 41.37 62.38 49.38"/>
          <path class="cls-2" d="M66.2,40.37c.52,0,.92-.13,1.22-.38s.44-.63.45-1.14l-.61-.08c0,.2-.1.36-.29.48-.19.12-.45.18-.77.18s-.56-.06-.75-.17c-.19-.12-.29-.28-.3-.49l-.62.08c.03.5.18.88.47,1.14.28.26.68.38,1.2.38Z"/>
        </g>
        <path class="cls-2" d="M15.27,54.86c1.85-.1,1.69,1.78,1.76,2.45l2.13-.21c-.05-.71-.2-1.31-.47-1.79-.26-.48-.75-.84-1.26-1.1-.51-.25-1.17-.38-1.98-.38-.86,0-1.74.15-2.29.45-.55.3-1.02.76-1.29,1.36-.26.61-.44,1.38-.44,2.31s.18,1.7.44,2.31c.26.61.73,1.06,1.29,1.36.55.3,1.43.45,2.29.45.8,0,1.46-.13,1.98-.38.51-.25,1-.62,1.26-1.1.26-.48.42-1.08.47-1.79l-2.13-.21c-.07.67.09,2.55-1.76,2.45-1.48-.08-1.51-2.59-1.51-3.1,0-.51.03-3.02,1.51-3.1Z"/>
        <path class="cls-2" d="M25.99,58.24c-.09-.09-.22-.16-.38-.2-.16-.04-.42-.09-.79-.14v-.14c.36-.06.63-.1.79-.15.16-.04.29-.11.4-.19.1-.09.22-.24.36-.45l2.05-3.02h-2.21l-2.21,3.29h-.56v-3.29h-2.08v8h2.08v-3.49h.55l2.35,3.49h2.3l-2.28-3.25c-.14-.22-.26-.38-.35-.47Z"/>
        <path class="cls-2" d="M31.55,53.96v4.07c-.01,1.39-.22,2.21-1.42,2.21v1.81c2.41,0,3.12-1.63,3.12-3.73v-2.96h2.52l-.03,6.6h2.07v-8h-6.26Z"/>
        <path class="cls-2" d="M57.33,53.96h-6.16v3.52c0,.52-.02.96-.06,1.32-.04.36-.13.7-.26,1-.12.28-.3.53-.53.76h-.87l.05,2.76h1.55v-1.35h5.58v1.35h1.56l.05-2.76h-.92v-6.6ZM51.68,60.56c.13-.09.97-.49.97-2.19v-3h2.64v5.19h-3.61Z"/>
        <polygon class="cls-2" points="47.68 41.37 47.68 44.41 44.85 44.41 44.85 41.37 42.77 41.37 42.77 49.38 44.85 49.38 44.85 45.81 47.68 45.81 47.68 49.38 49.76 49.38 49.76 41.37 47.68 41.37"/>
        <path class="cls-2" d="M59.65,43.04c-.28-.61-.71-1.08-1.29-1.38-.58-.3-1.36-.45-2.29-.45s-1.71.15-2.29.45c-.58.3-1.01.77-1.29,1.38-.28.61-.48,1.39-.48,2.34s.2,1.72.48,2.34c.28.61.71,1.08,1.29,1.38.58.3,1.36.45,2.29.45s1.71-.15,2.29-.45c.58-.3,1.01-.77,1.29-1.38.28-.61.48-1.39.48-2.34s-.2-1.72-.48-2.34ZM56.06,48.76c-.62,0-1.77-.2-1.77-3.38s1.15-3.38,1.77-3.38,1.77.2,1.77,3.38-1.15,3.38-1.77,3.38Z"/>
        <path class="cls-2" d="M45.69,61.97h2.13l-2.2-8h-3.48l-2.2,8h2.13l.46-1.78h2.71l.46,1.78ZM42.75,59.26l1.06-4.13h.11l1.06,4.13h-2.23Z"/>
        <polygon class="cls-2" points="11.93 41.37 11.93 49.38 14.09 49.38 14.09 42.78 16.92 42.78 16.92 49.38 19.08 49.38 19.08 41.37 11.93 41.37"/>
      </g>
    </g>
  </g>
</svg>