<svg width="84" height="40" viewBox="0 0 84 40" fill="none" xmlns="http://www.w3.org/2000/svg">
<path d="M21.9629 14.7253V0.000488281H16.9521V17.4777H19.2106C20.7303 17.4777 21.9629 16.245 21.9629 14.7253Z" fill="white"/>
<path d="M79.933 13.0086C79.5061 13.8828 78.9436 14.5326 77.574 14.5326C76.0907 14.5326 75.1699 13.6089 75.0577 11.7613H83.8204V11.1873C83.8204 7.14253 81.5051 4.67139 77.0116 4.67139C72.18 4.67139 69.5967 7.26783 69.5967 11.2383C69.5967 15.2087 72.1582 17.8051 77.2593 17.8051C81.3929 17.8051 83.3702 15.6837 83.9996 13.8362L79.933 13.0115V13.0086ZM77.2374 7.36545C78.3157 7.36545 79.0121 8.0896 79.1025 9.73751H75.1247C75.2602 8.13914 76.0689 7.36545 77.2374 7.36545Z" fill="white"/>
<path d="M36.6586 26.8901C35.3327 27.3637 33.5128 29.0378 32.3224 30.8358H32.2772C32.4565 29.7372 32.592 28.6138 32.592 27.6143V27.1903H27.6045V39.6742H32.6153V35.3774C32.6153 33.5881 33.9936 32.4662 35.5585 31.7246C36.1574 31.4405 36.711 31.27 37.3113 31.1097C37.3113 31.1097 36.9704 30.4861 36.7489 29.0524C36.5231 27.5895 36.66 26.8916 36.66 26.8916L36.6586 26.8901Z" fill="white"/>
<path d="M45.8748 36.7275C44.3915 36.7275 43.4707 35.8037 43.3585 33.9562H52.1212V33.3821C52.1212 29.3374 49.8059 26.8662 45.3124 26.8662C40.4808 26.8662 37.8975 29.4627 37.8975 33.4331C37.8975 37.4035 40.459 40 45.5601 40C49.6937 40 51.6709 37.8785 52.3004 36.031L48.2338 35.2063C47.8068 36.0805 47.2444 36.7304 45.8748 36.7304V36.7275ZM45.5382 29.5617C46.6164 29.5617 47.3129 30.2859 47.4032 31.9338H43.4255C43.561 30.3354 44.3697 29.5617 45.5382 29.5617Z" fill="white"/>
<path d="M67.5266 34.6296L65.1895 27.1899H61.3924L59.2126 34.6296L57.2573 27.1899H51.9551L56.1339 39.6724H60.8533L62.695 33.1565L64.6955 39.6724H69.5941L73.7278 27.1899H69.3683L67.5266 34.6296Z" fill="white"/>
<path d="M36.9607 9.18917C36.9607 6.46742 35.3886 4.66943 30.9169 4.66943C26.4452 4.66943 25.0523 6.21681 24.334 8.1401L28.6934 8.83948C29.0752 8.0148 29.6143 7.56603 30.5803 7.56603C31.5463 7.56603 31.9514 8.06579 31.9514 8.96479V9.88855L29.1655 10.0882C24.739 10.4131 23.3242 11.9852 23.3242 14.2072C23.3242 16.4292 24.739 17.777 27.4579 17.777C30.1767 17.777 31.5915 16.3039 32.1758 15.4049C32.1088 15.8289 32.0855 16.1786 32.0855 16.5035C32.0855 16.878 32.1306 17.2029 32.221 17.4783H37.3439C37.1196 17.0295 36.9622 16.5793 36.9622 15.8551V9.18917H36.9607ZM30.2131 14.5729C29.4948 14.5729 28.9105 14.0367 28.9105 13.3738C28.9105 12.7108 29.4934 12.1746 30.2131 12.1746C30.9329 12.1746 31.5157 12.7108 31.5157 13.3738C31.5157 14.0367 30.9329 14.5729 30.2131 14.5729Z" fill="white"/>
<path d="M15.9325 11.161C15.9325 7.01576 13.1044 4.66992 10.0257 4.66992C7.66669 4.66992 6.31746 6.06868 5.77836 7.11629C5.86869 6.24207 5.91386 5.61846 5.91386 4.99484H0.948242V22.472H3.20667C4.72637 22.472 5.95903 21.2394 5.95903 19.7197V19.7007C5.95903 18.3282 5.89201 17.03 5.82353 15.9809C6.31746 16.7808 7.66524 17.8037 9.80127 17.8037C13.0811 17.8037 15.9325 15.4316 15.9325 11.1625V11.161ZM9.40204 13.6365C8.24368 13.6365 7.30535 12.6166 7.30535 11.3592C7.30535 10.1018 8.24368 9.08184 9.40204 9.08184C10.5604 9.08184 11.4987 10.1018 11.4987 11.3592C11.4987 12.6166 10.5604 13.6365 9.40204 13.6365Z" fill="white"/>
<path d="M20.2464 26.8651C17.9544 26.8651 16.5833 28.1138 16.0224 29.1877C16.1346 28.089 16.1797 27.0662 16.1797 25.8175V24.9491C16.1797 23.4294 14.9471 22.1968 13.4274 22.1968H11.1689V39.674H16.1127C16.1127 39.2004 16.0909 38.6992 16.0457 37.9517C16.4945 38.7254 17.7767 39.9989 20.0905 39.9989C23.2814 39.9989 26.1547 37.6268 26.1547 33.3329C26.1547 29.039 23.3266 26.8666 20.2478 26.8666L20.2464 26.8651ZM19.6213 35.5593C18.4629 35.5593 17.5246 34.5394 17.5246 33.2819C17.5246 32.0245 18.4629 31.0046 19.6213 31.0046C20.7796 31.0046 21.718 32.0245 21.718 33.2819C21.718 34.5394 20.7796 35.5593 19.6213 35.5593Z" fill="white"/>
<path d="M54.8534 13.9821C54.8534 16.379 56.2244 17.8025 58.6286 17.8025C61.0327 17.8025 62.7404 16.3542 63.482 15.5557C63.3917 16.3294 63.3465 16.9035 63.3465 17.4776H68.3121V4.99365H63.3013V13.682C62.8292 14.0317 62.0424 14.5067 61.2119 14.5067C60.3814 14.5067 59.886 13.9821 59.886 13.0336V4.99365H54.8199C54.6188 5.77463 54.2166 6.98543 53.9121 7.63964H54.8519V13.9821H54.8534Z" fill="white"/>
<path d="M44.5039 25.0452H46.1664C51.626 25.0452 53.4458 22.998 53.4458 20.4759C53.4458 18.2539 52.0077 16.7051 48.5021 16.7051L42.6141 16.7298C42.5282 16.6002 42.4466 16.131 42.4918 15.774C42.5777 15.4564 42.773 15.3879 43.0717 15.3879C43.3704 15.3879 44.9294 15.5992 45.518 15.5992C49.3472 15.5992 52.2365 13.0916 52.2365 10.1761C52.2365 9.35138 52.0325 8.46695 51.677 7.93659C52.678 7.43683 53.3861 6.13714 53.3861 4.96131H49.0237C49.0237 5.08079 48.9946 5.28478 48.9363 5.40425C48.081 4.99045 46.7551 4.66699 45.5166 4.66699C41.5374 4.66699 38.7981 7.22993 38.7981 10.2358C38.7981 11.9726 39.7423 13.2417 40.7724 14.0372C41.227 14.3009 41.1425 14.6535 40.8336 14.8167C39.821 15.4345 39.1755 16.3816 39.1755 17.6798C39.1755 18.978 39.8938 19.9266 40.5466 20.4001C38.906 20.6245 38.0303 21.2991 38.0303 22.4982C38.0303 23.8212 39.0633 25.0452 44.501 25.0452H44.5039ZM45.5224 8.67094C46.4083 8.67094 47.1441 9.37906 47.1441 10.2343C47.1441 11.0896 46.4068 11.7365 45.5224 11.7365C44.5797 11.7365 43.8133 11.0576 43.8133 10.2343C43.8133 9.41111 44.5797 8.6724 45.5224 8.67094ZM45.7395 20.5706C47.6963 20.5706 49.2816 21.0223 49.2816 21.5789C49.2816 22.1354 47.6949 22.5871 45.7395 22.5871C43.7842 22.5871 42.1974 22.1354 42.1974 21.5789C42.1974 21.0223 43.7842 20.5706 45.7395 20.5706Z" fill="white"/>
</svg>
