<svg width="44" height="45" viewBox="0 0 44 45" fill="none" xmlns="http://www.w3.org/2000/svg">
<path d="M29.5428 23.7573H23.2571V30.0431C23.2571 30.3765 23.1246 30.6962 22.8889 30.932C22.6531 31.1677 22.3334 31.3002 22 31.3002C21.6665 31.3002 21.3468 31.1677 21.111 30.932C20.8753 30.6962 20.7428 30.3765 20.7428 30.0431V23.7573H14.4571C14.1237 23.7573 13.8039 23.6249 13.5682 23.3891C13.3324 23.1534 13.2 22.8336 13.2 22.5002C13.2 22.1668 13.3324 21.847 13.5682 21.6113C13.8039 21.3755 14.1237 21.2431 14.4571 21.2431H20.7428V14.9573C20.7428 14.6239 20.8753 14.3042 21.111 14.0684C21.3468 13.8326 21.6665 13.7002 22 13.7002C22.3334 13.7002 22.6531 13.8326 22.8889 14.0684C23.1246 14.3042 23.2571 14.6239 23.2571 14.9573V21.2431H29.5428C29.8762 21.2431 30.196 21.3755 30.4317 21.6113C30.6675 21.847 30.8 22.1668 30.8 22.5002C30.8 22.8336 30.6675 23.1534 30.4317 23.3891C30.196 23.6249 29.8762 23.7573 29.5428 23.7573Z" fill="#1E1E1E"/>
</svg>
