<svg width="25" height="24" viewBox="0 0 25 24" fill="none" xmlns="http://www.w3.org/2000/svg">
<path d="M15.486 8.47434L12.9538 2.98442C12.7751 2.59699 12.2244 2.59699 12.0457 2.98442L9.51347 8.47434C9.44064 8.63224 9.291 8.74096 9.11831 8.76144L3.11459 9.47327C2.69089 9.52351 2.52073 10.0472 2.83398 10.3369L7.27269 14.4417C7.40036 14.5597 7.45752 14.7357 7.42363 14.9062L6.24537 20.8361C6.16222 21.2545 6.6077 21.5782 6.98001 21.3698L12.2555 18.4168C12.4073 18.3319 12.5922 18.3319 12.744 18.4168L18.0195 21.3698C18.3918 21.5782 18.8373 21.2545 18.7541 20.8361L17.5759 14.9062C17.542 14.7357 17.5991 14.5597 17.7268 14.4417L22.1655 10.3369C22.4788 10.0472 22.3086 9.52351 21.8849 9.47327L15.8812 8.76144C15.7085 8.74096 15.5589 8.63224 15.486 8.47434Z" stroke="#292522" stroke-width="2" stroke-linecap="round" stroke-linejoin="round"/>
</svg>
