<svg width="32" height="32" viewBox="0 0 32 32" fill="none" xmlns="http://www.w3.org/2000/svg">
<path d="M19.9817 11.2991L16.6054 3.97923C16.3671 3.46265 15.6329 3.46265 15.3946 3.97923L12.0183 11.2991C11.9212 11.5097 11.7217 11.6546 11.4914 11.6819L3.48644 12.631C2.92152 12.698 2.69464 13.3963 3.1123 13.7825L9.03058 19.2556C9.20081 19.413 9.27702 19.6475 9.23183 19.875L7.66082 27.7814C7.54995 28.3394 8.14393 28.7709 8.64034 28.4931L15.6744 24.5557C15.8767 24.4425 16.1233 24.4425 16.3256 24.5557L23.3597 28.4931C23.8561 28.7709 24.45 28.3394 24.3392 27.7814L22.7682 19.875C22.723 19.6475 22.7992 19.413 22.9694 19.2556L28.8877 13.7825C29.3054 13.3963 29.0785 12.698 28.5135 12.631L20.5086 11.6819C20.2783 11.6546 20.0788 11.5097 19.9817 11.2991Z" fill="#292522" stroke="#292522" stroke-width="2" stroke-linecap="round" stroke-linejoin="round"/>
</svg>
