{
	"asset":{
		"generator":"Khronos glTF Blender I/O v4.4.56",
		"version":"2.0"
	},
	"scene":0,
	"scenes":[
		{
			"name":"Scene",
			"nodes":[
				0,
				1,
				2,
				3,
				4,
				5,
				6,
				7
			]
		}
	],
	"nodes":[
		{
			"mesh":0,
			"name":"Cube"
		},
		{
			"name":"Empty",
			"rotation":[
				0.5,
				0.5,
				-0.5,
				0.5
			],
			"scale":[
				0.5608848929405212,
				0.5608848929405212,
				0.5608848929405212
			],
			"translation":[
				0,
				1.3070533275604248,
				0
			]
		},
		{
			"name":"Empty.001",
			"scale":[
				0.1933443546295166,
				0.1933443546295166,
				0.1933443546295166
			]
		},
		{
			"mesh":1,
			"name":"Cube.001"
		},
		{
			"mesh":2,
			"name":"Circle",
			"scale":[
				0.10933935642242432,
				0.10933935642242432,
				0.10933935642242432
			],
			"translation":[
				-0.001521470258012414,
				2.6287550926208496,
				-0.0005992250517010689
			]
		},
		{
			"mesh":3,
			"name":"Plane",
			"rotation":[
				0,
				0,
				0.7071066498756409,
				0.70710688829422
			],
			"scale":[
				1.031686544418335,
				1,
				1.7747682332992554
			],
			"translation":[
				0.9096939563751221,
				1.1767091751098633,
				-0.0005992250517010689
			]
		},
		{
			"mesh":4,
			"name":"Plane.001",
			"rotation":[
				0,
				0,
				0.7071066498756409,
				0.70710688829422
			],
			"scale":[
				1.031686544418335,
				1,
				1.7747682332992554
			],
			"translation":[
				0.9096939563751221,
				1.1767091751098633,
				-0.0005992250517010689
			]
		},
		{
			"mesh":5,
			"name":"Plane.002",
			"rotation":[
				0,
				0,
				0.7071066498756409,
				0.70710688829422
			],
			"scale":[
				1.0264147520065308,
				2.114210605621338,
				0.9161098599433899
			],
			"translation":[
				-0.532579243183136,
				1.1669598817825317,
				-0.0005992250517010689
			]
		}
	],
	"materials":[
		{
			"doubleSided":true,
			"name":"ALUMINIUM",
			"pbrMetallicRoughness":{
				"baseColorFactor":[
					0.6000000238418579,
					0.6000000238418579,
					0.6000000238418579,
					1
				]
			}
		},
		{
			"alphaMode":"BLEND",
			"doubleSided":true,
			"name":"Material",
			"pbrMetallicRoughness":{
				"baseColorTexture":{
					"index":0
				},
				"metallicFactor":0,
				"roughnessFactor":0.26363635063171387
			}
		}
	],
	"meshes":[
		{
			"name":"Cube",
			"primitives":[
				{
					"attributes":{
						"POSITION":0,
						"NORMAL":1,
						"TEXCOORD_0":2
					},
					"indices":3,
					"material":0
				}
			]
		},
		{
			"name":"Cube.004",
			"primitives":[
				{
					"attributes":{
						"POSITION":4,
						"NORMAL":5,
						"TEXCOORD_0":6
					},
					"indices":7,
					"material":0
				}
			]
		},
		{
			"name":"Circle",
			"primitives":[
				{
					"attributes":{
						"POSITION":8,
						"NORMAL":9,
						"TEXCOORD_0":10
					},
					"indices":11,
					"material":0
				}
			]
		},
		{
			"name":"Plane",
			"primitives":[
				{
					"attributes":{
						"POSITION":12,
						"NORMAL":13,
						"TEXCOORD_0":14
					},
					"indices":15,
					"material":1
				}
			]
		},
		{
			"name":"Plane.001",
			"primitives":[
				{
					"attributes":{
						"POSITION":16,
						"NORMAL":17,
						"TEXCOORD_0":18
					},
					"indices":15,
					"material":1
				}
			]
		},
		{
			"name":"Plane.002",
			"primitives":[
				{
					"attributes":{
						"POSITION":19,
						"NORMAL":20,
						"TEXCOORD_0":21
					},
					"indices":15,
					"material":1
				}
			]
		}
	],
	"textures":[
		{
			"sampler":0,
			"source":0
		}
	],
	"images":[
		{
			"mimeType":"image/png",
			"name":"Good Morning Brazil Cerrado",
			"uri":"Good%20Morning%20Brazil%20Cerrado.png"
		}
	],
	"accessors":[
		{
			"bufferView":0,
			"componentType":5126,
			"count":230,
			"max":[
				0.5064063668251038,
				2.628593683242798,
				0.5064077973365784
			],
			"min":[
				-0.506406307220459,
				-0.03286689519882202,
				-0.5064100623130798
			],
			"type":"VEC3"
		},
		{
			"bufferView":1,
			"componentType":5126,
			"count":230,
			"type":"VEC3"
		},
		{
			"bufferView":2,
			"componentType":5126,
			"count":230,
			"type":"VEC2"
		},
		{
			"bufferView":3,
			"componentType":5123,
			"count":1224,
			"type":"SCALAR"
		},
		{
			"bufferView":4,
			"componentType":5126,
			"count":397,
			"max":[
				0.42320534586906433,
				2.675656318664551,
				0.42465370893478394
			],
			"min":[
				-0.42729806900024414,
				2.6069936752319336,
				-0.4258540868759155
			],
			"type":"VEC3"
		},
		{
			"bufferView":5,
			"componentType":5126,
			"count":397,
			"type":"VEC3"
		},
		{
			"bufferView":6,
			"componentType":5126,
			"count":397,
			"type":"VEC2"
		},
		{
			"bufferView":7,
			"componentType":5123,
			"count":2472,
			"type":"SCALAR"
		},
		{
			"bufferView":8,
			"componentType":5126,
			"count":567,
			"max":[
				1,
				0.1463383138179779,
				1
			],
			"min":[
				-2.4351000785827637,
				-3.5291964195494074e-07,
				-1
			],
			"type":"VEC3"
		},
		{
			"bufferView":9,
			"componentType":5126,
			"count":567,
			"type":"VEC3"
		},
		{
			"bufferView":10,
			"componentType":5126,
			"count":567,
			"type":"VEC2"
		},
		{
			"bufferView":11,
			"componentType":5123,
			"count":3114,
			"type":"SCALAR"
		},
		{
			"bufferView":12,
			"componentType":5126,
			"count":10404,
			"max":[
				1,
				0,
				1
			],
			"min":[
				-1,
				0,
				-1
			],
			"type":"VEC3"
		},
		{
			"bufferView":13,
			"componentType":5126,
			"count":10404,
			"type":"VEC3"
		},
		{
			"bufferView":14,
			"componentType":5126,
			"count":10404,
			"type":"VEC2"
		},
		{
			"bufferView":15,
			"componentType":5123,
			"count":61206,
			"type":"SCALAR"
		},
		{
			"bufferView":16,
			"componentType":5126,
			"count":10404,
			"max":[
				1,
				0,
				1
			],
			"min":[
				-1,
				0,
				-1
			],
			"type":"VEC3"
		},
		{
			"bufferView":17,
			"componentType":5126,
			"count":10404,
			"type":"VEC3"
		},
		{
			"bufferView":18,
			"componentType":5126,
			"count":10404,
			"type":"VEC2"
		},
		{
			"bufferView":19,
			"componentType":5126,
			"count":10404,
			"max":[
				1,
				0,
				1
			],
			"min":[
				-1,
				0,
				-1
			],
			"type":"VEC3"
		},
		{
			"bufferView":20,
			"componentType":5126,
			"count":10404,
			"type":"VEC3"
		},
		{
			"bufferView":21,
			"componentType":5126,
			"count":10404,
			"type":"VEC2"
		}
	],
	"bufferViews":[
		{
			"buffer":0,
			"byteLength":2760,
			"byteOffset":0,
			"target":34962
		},
		{
			"buffer":0,
			"byteLength":2760,
			"byteOffset":2760,
			"target":34962
		},
		{
			"buffer":0,
			"byteLength":1840,
			"byteOffset":5520,
			"target":34962
		},
		{
			"buffer":0,
			"byteLength":2448,
			"byteOffset":7360,
			"target":34963
		},
		{
			"buffer":0,
			"byteLength":4764,
			"byteOffset":9808,
			"target":34962
		},
		{
			"buffer":0,
			"byteLength":4764,
			"byteOffset":14572,
			"target":34962
		},
		{
			"buffer":0,
			"byteLength":3176,
			"byteOffset":19336,
			"target":34962
		},
		{
			"buffer":0,
			"byteLength":4944,
			"byteOffset":22512,
			"target":34963
		},
		{
			"buffer":0,
			"byteLength":6804,
			"byteOffset":27456,
			"target":34962
		},
		{
			"buffer":0,
			"byteLength":6804,
			"byteOffset":34260,
			"target":34962
		},
		{
			"buffer":0,
			"byteLength":4536,
			"byteOffset":41064,
			"target":34962
		},
		{
			"buffer":0,
			"byteLength":6228,
			"byteOffset":45600,
			"target":34963
		},
		{
			"buffer":0,
			"byteLength":124848,
			"byteOffset":51828,
			"target":34962
		},
		{
			"buffer":0,
			"byteLength":124848,
			"byteOffset":176676,
			"target":34962
		},
		{
			"buffer":0,
			"byteLength":83232,
			"byteOffset":301524,
			"target":34962
		},
		{
			"buffer":0,
			"byteLength":122412,
			"byteOffset":384756,
			"target":34963
		},
		{
			"buffer":0,
			"byteLength":124848,
			"byteOffset":507168,
			"target":34962
		},
		{
			"buffer":0,
			"byteLength":124848,
			"byteOffset":632016,
			"target":34962
		},
		{
			"buffer":0,
			"byteLength":83232,
			"byteOffset":756864,
			"target":34962
		},
		{
			"buffer":0,
			"byteLength":124848,
			"byteOffset":840096,
			"target":34962
		},
		{
			"buffer":0,
			"byteLength":124848,
			"byteOffset":964944,
			"target":34962
		},
		{
			"buffer":0,
			"byteLength":83232,
			"byteOffset":1089792,
			"target":34962
		}
	],
	"samplers":[
		{
			"magFilter":9729,
			"minFilter":9987
		}
	],
	"buffers":[
		{
			"byteLength":1173024,
			"uri":"%D1%82%D0%B2%D0%B0%D1%80%D1%8C.bin"
		}
	]
}
